<?xml version="1.0" encoding="utf-8"?>
<!-- Generator: Adobe Adobe Illustrator 24.2.0, SVG Export Plug-In . SVG Version: 6.00 Build 0)  -->
<svg version="1.1" id="Layer_1" xmlns="http://www.w3.org/2000/svg" xmlns:xlink="http://www.w3.org/1999/xlink" x="0px" y="0px"
	 viewBox="0 0 544 391.4" style="enable-background:new 0 0 544 391.4;" xml:space="preserve">
<style type="text/css">
	.st0{display:none;fill:#FECF39;}
	.st1{fill:#0097D9;}
	.st2{fill:#FFFFFF;}
	.st3{fill:#FF0011;}
	.st4{fill:#FECC1F;}
	.st5{fill:#FECF39;}
	.st6{display:none;opacity:0.902;fill:#363636;}
	.st7{display:none;opacity:0.8784;fill:#363636;}
	.st8{fill:#387DCE;}
	.st9{fill:#00C06B;}
	.st10{fill:#7569CD;}
	.st11{fill:#5F4D7E;}
	.st12{fill:#FF9845;}
	.st13{fill:#478ED7;}
	.st14{opacity:0.902;fill:#FFFFFF;}
	.st15{fill:url(#SVGID_1_);}
	.st16{fill:url(#SVGID_2_);}
	.st17{fill:url(#SVGID_3_);}
	.st18{fill:url(#SVGID_4_);}
	.st19{fill:url(#SVGID_5_);}
	.st20{fill:url(#SVGID_6_);}
	.st21{fill:url(#SVGID_7_);}
	.st22{fill:url(#SVGID_8_);}
	.st23{fill:url(#SVGID_9_);}
	.st24{fill:url(#SVGID_10_);}
	.st25{fill:url(#SVGID_11_);}
	.st26{fill:url(#SVGID_12_);}
	.st27{fill:url(#SVGID_13_);}
</style>
<path d="M102.41,252.72v-111.2c0-27.77,22.51-50.28,50.28-50.28h244.47c27.77,0,50.28,22.51,50.28,50.28v111.2
	c0,27.77-22.51,50.28-50.28,50.28H152.68C124.92,303,102.41,280.49,102.41,252.72z"/>
<path class="st2" d="M108.04,149.19L108.04,149.19c0-26.91,21.82-48.73,48.73-48.73h198.7c26.91,0,48.73,21.82,48.73,48.73v0
	c0,26.91-21.82,48.73-48.73,48.73h-198.7C129.86,197.92,108.04,176.11,108.04,149.19z"/>
<path class="st3" d="M111.14,214.12v-71.36c0-19.75,16.01-35.75,35.75-35.75h218.46c19.75,0,35.75,16.01,35.75,35.75v71.36
	c0,19.75-16.01,35.75-35.75,35.75H146.89C127.14,249.87,111.14,233.86,111.14,214.12z"/>
<path class="st4" d="M235.59,220.32c5.09,8.75,14.68,14.76,24.83,15.58c10.15,0.82,20.59-3.58,27.04-11.4
	c0.88,9.77,10.03,18.11,19.93,18.14s19.11-8.24,20.06-18c-1.75,7.57,7.49,14.07,15.19,12.63c7.7-1.44,13.37-7.86,17.76-14.3
	c11.64,9.28,29.25,10.73,41.9,2.85c12.65-7.87,18.97-24.79,13.88-38.71c-3.27-8.94-10.53-16-18.76-20.89
	c-8.22-4.89-17.44-7.86-26.56-10.78"/>
<path class="st5" d="M311.41,140.19c-3.44-10.87-1.6-24.37-13.22-27.84s-25.01-1.26-34.63,5.71c-8.59-6.72-21.19-8.68-31.68-4.93
	c-4.57,1.64-8.83,4.28-13.7,4.79c-4.97,0.52-9.83-1.27-14.74-2.12c-12.74-2.22-26.6,2.31-35.03,11.46
	c-9.79-4.19-19.91-7.99-30.57-9.47c-21.45-2.98-44.5,4.22-53.48,32.42c-3.85,12.1-10.27,61.22,9.62,80.32
	c13.47,12.94,40.67,18.37,74.58-4.09"/>
<path d="M423.1,221.42c-1.69,5.59,5.1,11.89,10.78,13.24c5.68,1.35,12.32-3.58,16.41-7.74c4.09-4.16,5.97-9.65,8.01-15.12
	c4.11-11.02,6.92-22.53,8.34-34.21c1.13-9.32,1.31-19.17-2.76-27.63c-4.07-8.46-11.75-16.93-20.92-14.97
	c7.38-8.48,11.08-19.04,8.3-29.94S438.12,86.57,427,84.91s-22.02,3.83-25.75,14.43c-4.3,12.24,8.48,21.8,6.8,35.99
	c-13.75-6.77-45.91-1.03-57.2,9.33c-1.71-7.46-6.48-11.52-14.13-11.5c-7.65,0.02-15.33,2.27-22.86,0.91
	c-8.99-1.62-8.26-8.06-16.52-11.96c-8.26-3.89-25.67-5.37-30.37,2.46c-11.33-8.71-26.52-5.76-41.34,4.03
	c-12.63-2.69-27.73-5.47-39.63-0.45c-21.68,9.14-6.71,9.42-21.47,1.46c-55.16-29.75-90.33,44.09-66.36,86.67
	c7.4,13.14,27.03,13.95,41.98,12.06c18.82-2.39,29.83-14.75,39.07-26.65c-5.56,10.87,7.42,37.89,32.37,19.72
	c13.14-9.58,12.18-30.05,14.73-39.46c-13.97,41.22,2.29,55.21,6.71,57.08c3.6,1.52,11.93,1.69,14.51-0.12
	c10.28-7.22,7.78-22.94,11.64-33.86c-2.85,7.24-2,24.99,11.52,24.46c14.03-2.57,15.56-14.89,17.72-26.67
	c0.02,16.21,10.25,25.31,33.34,26.44c15.56,0.77,29.14-0.13,32.12-16.06c5.96,7.8,13.08,11.46,20.28,11.95
	c8.72,0.59,15.4-0.03,21.85-5.92c-2.94,2.32,4.09,7.26,7.52,5.77c14.38-6.23,10.29-12.83,17.59-12.27
	C426.43,213.15,424.07,222.71,423.1,221.42z"/>
<path class="st8" d="M409.06,212.25c-0.83,1.22-4.56,3.59-7.43,3.55c-11-0.17-7.15-12.81-6.03-19.46
	c2.01-11.94,5.72-24.59,8.6-36.36c4.06-16.6,5.11-28.73,14.07-30.49c2.45-0.48,4.61,0.67,6.78,3c4.48,4.8,1.18,16.29-1.12,24.12
	c2.76-3.62,6.72-6.3,11.1-7.51c3.72-1.03,7.92-0.96,11.19,1.1c2.77,1.74,4.58,4.71,5.58,7.83c2.21,6.88,0.86,14.33-0.5,21.43
	c-1.73,8.96-3.45,17.92-5.18,26.88c-0.57,2.95-1.15,5.93-2.44,8.63c-4.33,9.03-13.08,8.2-15.8,4.73c-2.31-2.96-1.43-8.03-0.92-11.75
	c1.46-10.63,3.53-21.17,6.2-31.56c0.68-2.65,1.96-9.29-1.18-11c-3.69-2.01-9.65-2.8-11.75,0.85"/>
<path class="st2" d="M196.59,149.19l17.55,0.76c3.34,0.14,5.85,3.08,5.51,6.4c-0.24,2.36-0.77,5.05-1.81,9.86
	c-2.33,10.81-4.04,18.54-7.39,29.77c-1.11,3.73-7.24,28.67-21.98,18.71c-5.78-3.9-3.77-11.62,5.55-54.14"/>
<ellipse class="st1" cx="421.99" cy="113.13" rx="17.79" ry="16.91"/>
<path class="st9" d="M394.22,144.67c-5.62-5.62-16.43-4.94-23.59-3.39c-12.63,2.73-21.01,11.61-24.98,30.18
	c-0.26,1.23-1.12,6.02-1.24,8.61c-0.37,7.9,1.78,16.46,6.48,22.82c4.7,6.36,11.91,11.32,19.56,13.29c4.44,1.14,9.64,0.5,13.7-1.63
	c4.06-2.13,8.54-7.36,7.09-11.7c-1.38-4.13-3.14-8.23-9.75-7.77c-4.34,0.3-11.59-0.48-14.49-3.73c-3.53-3.95-3.39-9.44-1.76-14.71
	s5.49-8.32,10.85-9.62c2.9-0.71,8.75-0.73,11.74-0.79c2.99-0.07,5,0.79,7.11-1.32C399.7,160.13,395.38,145.83,394.22,144.67z"/>
<path class="st10" d="M344.8,148.93c-3.11,4.27-11.12,2.29-15.36,2.07c-5.32-0.28-10.5-0.98-15.82-0.69
	c-3.98,0.21-8.08,1.39-11.46,3.49c-3.38,2.1-5.56,5.51-4.71,9.39c-1.49-3.5-2.21-7.83-0.08-10.99c2.09-3.1,5.6-5.02,9.23-5.93
	c3.63-0.91,7.42-0.93,11.16-0.94c6.72-0.02,13.43-0.04,20.15-0.07c1.18,0,2.39,0,3.48,0.44S345.39,148.13,344.8,148.93z"/>
<path class="st10" d="M332.41,171.46c1.13,0.26,1.84,1.81,1.51,2.91c-0.33,1.1-0.75,2.43-1.86,2.78c-1.11,0.35-3,0.57-4.16,0.56
	c0,0-12.6,0.1-18.76,0c-4.16-0.06-8.45-0.5-12.42,0.72c-3.97,1.22-6.59,3.54-7.9,7.45c1.18-4.25,2.24-8.99,5.72-11.74
	c4.38-3.47,10.41-3.82,16.01-4.03C317.99,169.84,325.44,169.84,332.41,171.46z"/>
<path class="st10" d="M342.64,146.46c-0.2,1.32-0.92,2.18-2.13,2.73s-2.58,1.28-3.91,1.34c-10.07,0.44-20.34-2.24-30.14,0.09
	c-3.18,0.76-6.39,2.15-8.32,4.79c-1.93,2.64-2.11,6.74,0.3,8.95c1.94,1.77,4.85,1.86,7.48,1.85c8.91-0.03,17.83-0.06,26.74-0.08
	c4.94-0.02,10.49-0.28,13.84-3.92c2.1-2.28,2.89-5.69,2.01-8.66C347.62,150.58,344.77,147.77,342.64,146.46z"/>
<path class="st10" d="M332,171.46c1.54,0.5,1.93,3.13,0.79,4.27s-2.9,1.34-4.51,1.42c-9.27,0.46-18.62-1.08-27.82,0.17
	c-3.73,0.5-7.69,1.66-9.91,4.69c-2.04,2.79-3.11,3.8-2.7,10.26c0.26,4.08,2.67,8.27,4.61,11.86c1.51,2.78,4.06,5.42,6.75,7.08
	c3.33,2.06,6.52,4.4,10.43,4.71c5.12,0.41,10.96,0.37,15.93,0.37c3.22,0,7.91-0.66,11.03-1.15c3.18-0.5,6.38-4.01,7.4-7.07
	c1.36-4.12-1.08-9.6-4.93-11.61c-4.77-2.49-18.41-0.96-20.46-1c-5.11-0.09-8.06-0.32-7.27-4.01c6.94-0.19,15,0.09,21.93-0.29
	c1.92-0.11,4.48-1.93,6.15-2.88c3.32-1.88,3.39-7.44,1.82-10.91C339.65,173.89,335.74,171.82,332,171.46z"/>
<path class="st10" d="M300.2,149.85c-1.32-0.06-2.53,0.82-3.24,1.93s-0.88,2.46-1.28,3.71c-2.91,9.07-4.84,17.09-6.85,25.85
	c-0.86,3.74-0.49,8.84,1.95,11.97c2.26,2.9,6.64,3.47,10.07,2.15s6.96-3.65,8.26-7.09c4.29-11.35,7.14-23.82,12.22-35.46"/>
<path class="st2" d="M123.81,141.62c-2.59,0.74-4.57,2.82-5.18,5.44c-4.66,19.93-7.58,36.2-11.39,55.91
	c-0.44,2.29,0.15,5.41,1.45,7.34c1.5,2.21,4.69,4.28,7.32,4.68c7.47,1.13,22.6,0.75,30.49,0.44c19.77-0.8,19.95-4.93,23.32-13.6
	c1.44-3.71,0.24-22.28-8.98-28.13c6.79-2.37,13.57-7.34,14.12-14.51c0.55-7.17-4.6-15.61-10.94-18.99
	c-5.03-2.68-10.97-2.91-16.66-2.8C140.02,137.55,129.8,139.9,123.81,141.62z"/>
<path d="M136.01,158.3c-0.83,3.4-1.36,6.25-2.04,9.62c2.73,0,4.89,0.1,7.08,0.1c2.5,0,4.34,0.04,6.65-0.09
	c2.3-0.14,4.68-0.54,6.12-2.35c1.43-1.81,1.84-4.72,0.15-6.29c-1.4-1.3-3.8-1.22-5.71-1.21C144.24,158.1,139.6,158.3,136.01,158.3z"
	/>
<path d="M130.54,186.25c-0.93,3.4-1.53,6.25-2.3,9.62c3.07,0,5.49,0.1,7.96,0.1c2.81,0,4.88,0.04,7.47-0.09
	c2.59-0.14,5.26-0.54,6.87-2.35c1.61-1.81,2.07-4.72,0.17-6.29c-1.58-1.3-4.27-1.22-6.41-1.21
	C139.8,186.05,134.58,186.25,130.54,186.25z"/>
<path class="st2" d="M195.32,158.07c-2.88,11.92-5.2,24.11-8.08,36.03c-0.77,3.21-2.2,9.15-2.2,12.45c-0.01,3.3,1.48,4.85,3.61,7.36
	c2.13,2.52,5.72,3.09,8.86,2.09c3.43-1.09,6.99-4.38,7.66-7.91c3.5-18.31,7.07-32.7,10.38-50.02
	C209.12,158.07,202.27,158.07,195.32,158.07z"/>
<path class="st4" d="M272.33,146.45c-1.17,6.2-8.62,39.7-11.41,58.86c-0.35,2.38-1.37,5.66-0.18,7.75c1.08,1.9,1.5,2.28,3.53,3.08
	c3.46,1.36,7.62,2.16,10.73,0.1c2.77-1.84,3.88-5.33,4.61-8.57c4.38-19.35,8.22-39.2,11.59-59.62c2.88,0.47,11.07,3.55,13.67,1.8
	c3.38-2.28,4.17-14.1,0-16.2c-9.3-4.68-50.8-7.87-43.45,8.92C261.55,142.85,272.27,147.64,272.33,146.45z"/>
<ellipse transform="matrix(0.3791 -0.9253 0.9253 0.3791 6.4632 273.5321)" class="st11" cx="207.07" cy="131.95" rx="14.48" ry="13.73"/>
<path class="st2" d="M237.59,150.66c-3.71,20.54-7.43,41.09-10.46,61.74c-0.58,3.98-1.14,8.06-0.26,11.98
	c0.88,3.92,3.5,7.71,7.36,8.82c4.71,1.35,9.79-1.72,12.35-5.91c2.55-4.19,3.16-9.24,3.72-14.11c2.4-21.12,4.79-42.25,7.19-63.37
	c0.81,0.39,6.53-1.7,10.73-3.34c2.83-1.1,22.8-25.74-35.89-11.89c-2.59,0.61-5.2,1.47-7.26,3.15c-2.06,1.69-3.48,4.36-3.04,6.99
	c0.5,3.04,3.35,5.26,6.35,5.99C231.35,151.46,234.5,151,237.59,150.66z"/>
<circle class="st12" cx="326.76" cy="121.58" r="4"/>
<circle class="st12" cx="346.84" cy="121.58" r="4"/>
<circle class="st12" cx="366.63" cy="121.58" r="4"/>
<circle class="st12" cx="385.26" cy="121.58" r="4"/>
<path class="st13" d="M117.47,276.05L117.47,276.05c0-9.04,7.33-16.38,16.38-16.38H416c9.04,0,16.38,7.33,16.38,16.38v0
	c0,9.04-7.33,16.38-16.38,16.38H133.84C124.8,292.42,117.47,285.09,117.47,276.05z"/>
<circle cx="140.1" cy="277.98" r="7.06"/>
<circle class="st5" cx="137.45" cy="276.05" r="7.06"/>
<circle cx="412.39" cy="277.01" r="7.06"/>
<circle class="st5" cx="409.75" cy="275.09" r="7.06"/>
<path class="st14" d="M203.45,267.66c-0.2-1.9-2.29-3.25-4.02-2.49c-2.83,1.38-2.23,12.02-2.8,15.4c-0.32-0.52-0.64-1.03-0.98-1.53
	c-2.45-3.75-4.91-7.5-7.47-11.18c-1.17-1.64-2.32-3.3-3.68-4.78c-0.71-0.74-1.42-1.57-2.39-1.97c-2.25-0.94-4.62,0.67-4.52,3.07
	c-0.31,2.41-0.47,4.84-0.52,7.26c-0.08,3.32-0.05,6.66-0.05,11.25c0.01,1.51,0.03,2.14,0.03,2.42c0,0.66,0.24,1.3,0.6,1.85
	c0.38,0.51,0.95,1.01,1.63,0.94c2.69-0.75,1.89-4.13,2.1-6.25c0.2-4.04,0.18-8.11,0.56-12.14c2.21,3.26,4.27,6.64,6.47,9.91
	c1.24,1.9,2.5,3.79,3.7,5.71c1.05,1.8,2.31,3.79,4.56,4.1c4.48,0.42,5.48-5.03,5.93-8.43C203.14,276.44,203.77,272.07,203.45,267.66
	z"/>
<path class="st14" d="M221.6,284.43c-0.48-0.13-1.74-0.46-1.51-0.39c-0.18-0.05-0.37-0.1-0.51-0.13c-1.74-0.52-3.5-1.06-5.12-1.88
	c-0.18-0.13-0.45-0.33-0.67-0.52c-0.17-0.2-0.48-0.57-0.62-0.81c-0.08-0.18-0.15-0.36-0.21-0.54c-0.03-0.17-0.05-0.33-0.06-0.5
	c0.02-0.2,0.05-0.39,0.07-0.59c0.8,0.22,1.63,0.37,2.33,0.58c1.72,0.4,3.81,0.76,5.04-0.83c1.01-1.24,0.67-3.1-0.57-4.06
	c-0.89-0.7-1.99-0.73-3.06-0.73c-1.03-0.03-2.05-0.09-3.08-0.11c0.17-1.2,0.33-2.39,0.48-3.59c1.7,0.19,3.43,0.12,5.14,0.05
	c1.03-0.08,2.11,0.01,3.09-0.39c2.82-1.16,2.61-4.89-0.78-5.55c-1.01-0.2-5.54-0.01-7.32,0.01c-0.04,0-1.47-0.21-2.12-0.1
	c-1.41,0.17-2.1,1.57-2.25,2.87c-0.3,1.46-0.5,2.95-0.67,4.43c-0.22,1.96-0.47,3.92-0.7,5.88c-0.12,1.22-0.28,2.49-0.01,3.7
	c0.48,2.12,1.75,4.07,3.54,5.32c1.58,1.04,3.3,1.81,5.05,2.51c1.27,0.44,2.57,1.06,3.94,0.96c2.14-0.29,3.36-2.59,2.05-4.41
	C222.67,285.07,222.16,284.7,221.6,284.43z"/>
<g>
	<path class="st14" d="M227.88,266.1c0,0-0.01,0-0.01-0.01C227.92,266.13,227.94,266.15,227.88,266.1z"/>
	<path class="st14" d="M250.11,261.39c-1.11-0.92-2.54-0.83-3.89-0.79c-2.2,0.03-6.59,0.03-6.59,0.03c-2.88-0.04-5.74,0.2-8.61,0.33
		l0.05,0c-0.69,0.02-1.38,0.1-2.07,0.11c-0.27,0.02-0.26,0.02-0.15,0.02c-0.31,0.02-0.62,0.08-0.93,0.18
		c-2.11,0.79-2.15,3.98-0.05,4.82c-0.05-0.03-0.14-0.09-0.23-0.15c1.23,0.71,2.8,0.95,4.18,1.01c0.74,0.02,1.47,0,2.21-0.02
		c-0.27,0.73-0.19,1.5-0.18,2.27c0.06,1.46,0.11,2.91,0.15,4.37c0.09,3.51,0.3,13.36,0.53,15.54c0.17,1.59,1.55,1.67,3.4,0.28
		c1.01-0.76,1-2.15,1.17-3.29c0.3-3.33,0.09-6.67,0.07-10c-0.03-2.24-0.06-4.49-0.12-6.73c0-0.88-0.02-1.8-0.36-2.58
		c0.24,0,0.47-0.01,0.71-0.01c2.67,0.01,5.34,0.03,8.01,0.02C250.47,267.09,252.74,263.61,250.11,261.39z"/>
</g>
<g>
	<path class="st14" d="M260.12,267c0.01,0.03,0.03,0.05,0.04,0.08C260.18,267.09,260.16,267.05,260.12,267z"/>
	<path class="st14" d="M299.53,265.84c-0.38-2.54-3.34-3.36-4.98-1.39c-0.59,0.79-0.74,1.79-1.11,2.68c-0.8,2.23-1.67,4.43-2.6,6.61
		c-1.74,3.82-2.61,6.07-4.25,8.34c-2.1-3.48-3.96-7.12-6.28-10.47c-0.86-1.27-1.83-2.55-3.23-3.25c-1.88-0.9-4.31-0.25-5.45,1.52
		c-0.34,0.35-3.46,7.3-4.95,9.21c-0.33,0.47-0.59,0.84-0.81,1.14c-1.66-3.91-3.16-7.89-4.94-11.75c-0.23-0.46-0.37-0.67-0.3-0.52
		c-0.2-0.36-0.4-0.72-0.6-1.07c0.03,0.04,0.05,0.08,0.07,0.11c-0.08-0.16-0.17-0.32-0.26-0.46c-0.01-0.02-0.02-0.04-0.04-0.07
		c0,0.01,0.01,0.02,0.01,0.03c-0.06-0.09-0.13-0.18-0.2-0.26c0.08,0.08,0.07,0.05-0.16-0.26c-1.37-2.19-4.83-1.58-5.18,1.04
		c-0.19,0.44,0.26,1.77,0.36,1.95c0.14,0.49,0.37,0.97,0.54,1.45c0.06,0.21,0.14,0.42,0.23,0.62c1.6,4.16,3.26,8.3,5.01,12.4
		c1.51,4.36,4.6,4.62,6.44,3.83c2.31-1.06,3.77-3.29,5.08-5.38c1.24-2.05,2.45-4.12,3.52-6.27c0.07,0.11,0.14,0.22,0.22,0.33
		c1.81,2.8,3.43,5.72,5.12,8.59c0.88,1.35,1.49,2.92,2.7,4.03c4.14,3.2,7.57-1.71,9.28-5.1c1.89-3.62,3.46-7.39,4.86-11.21
		c0.49-1.33,0.96-2.67,1.39-4.02C299.32,267.46,299.63,266.67,299.53,265.84z"/>
</g>
<path class="st14" d="M322.75,265.33c-0.89-2.77-9.41-2.43-10.49-2.1c-0.07,0.21-6.92,2.22-8.65,10.28
	c-1.41,6.57,4.21,12.77,10.84,12.41c4.64-0.28,8.76-3.62,10.3-7.96C326.14,273.65,325.9,268.7,322.75,265.33z M319.1,275.61
	c-0.56,1.66-0.69,1.4-0.76,1.63c-1.3,1.6-0.79,0.91-1.58,1.61c-0.12,0.09-0.26,0.18-0.39,0.26c-0.37,0.18-0.75,0.34-1.14,0.47
	c-0.1,0.03-0.18,0.06-0.24,0.08c-0.33,0.08-0.67,0.14-1.01,0.17c-0.45-0.03-0.89-0.1-1.33-0.2c-0.31-0.1-0.62-0.22-0.93-0.36
	c-0.09-0.05-0.16-0.08-0.23-0.12c-0.25-0.17-0.49-0.35-0.72-0.55c-0.1-0.09-0.19-0.17-0.27-0.25c-0.27-0.31-0.52-0.63-0.74-0.98
	c-0.14-0.3-0.27-0.6-0.37-0.91c-0.05-0.26-0.1-0.51-0.13-0.77c-0.01-0.17-0.03-0.33-0.04-0.5c0-0.01,0-0.01,0-0.02
	c-0.01-0.41,0.21-1.36,0.26-1.58c0.05-0.17,0.12-0.39,0.19-0.58c0.97-2.26,0.67-1.92,2.47-4.04c0.58-0.69,4.55-2.24,6.34,1.25
	c0.23,0.45,0.44,0.92,0.59,1.4C319.14,271.93,319.6,273.17,319.1,275.61z"/>
<path class="st14" d="M350.12,281.69c-2-0.86-4.02-1.69-6-2.6c3-1.94,5.48-4.68,6.64-7.77c1.39-3.41-0.19-7.56-3.46-9.23
	c-1.17-0.66-2.52-0.97-3.84-1.18c-2.92-0.14-0.44-0.14-4.17,0.01c-1.36,0.11-2.72,0.22-4.08,0.41c-0.54,0.08-1.11,0.16-1.61,0.37
	c-0.36-0.06-0.74-0.04-1.1,0.12c-2.14,0.96-1.29,3.69-1.44,5.56c-0.02,4.48,0.56,8.92,1.12,13.35c0.19,1.75,0.39,3.51,0.56,5.26
	c0.05,1.01,0.48,2,1.28,2.62c1.13,0.83,2.42,0.61,3.28-0.42c1.21-1.61,0.42-3.54,0.3-5.35c0-0.03-0.01-0.06-0.01-0.09
	c1.71,1.04,3.53,1.89,5.37,2.7c2.15,0.91,4.29,1.85,6.45,2.73c1.83,0.75,4.2-0.28,4.48-2.33
	C354.06,283.36,352.13,282.43,350.12,281.69z M335.79,266.69c-0.03-0.26-0.06-0.52-0.08-0.78c2.51-0.11,1.73-0.13,5.26,0.03
	c2.51,0.34,1.4,0.08,3.63,0.98c0.01,0,0.01,0.01,0.02,0.01c0.12,0.08,0.23,0.17,0.33,0.26c0.17,0.2,0.33,0.41,0.47,0.62
	c0.06,0.13,0.12,0.28,0.18,0.43c0.02,0.1,0.03,0.22,0.05,0.34c-0.02,0.17-0.04,0.4-0.08,0.62c-0.1,0.3-0.28,0.81-0.46,1.19
	c-0.43,0.63-0.93,1.2-1.46,1.75c-0.02,0.02-0.04,0.04-0.06,0.06c-0.01,0.01-0.02,0.02-0.03,0.03c-0.67,0.62-1.42,1.14-2.2,1.61
	c-1.4,0.76-2.9,1.3-4.42,1.73c-0.08,0.03-0.16,0.06-0.24,0.09C336.36,272.68,336.05,269.69,335.79,266.69z"/>
<path class="st14" d="M378.62,283.75c-0.36-0.9-1.07-1.56-1.84-2.12c-1.14-0.91-2.35-1.72-3.55-2.55c-3.09-1.95-4.74-2.99-6.8-4.1
	c0.01-0.01,0.01-0.01,0.02-0.02c1.25-1.54,2.47-3.1,3.66-4.69c1.11-1.61,2.52-3.06,3.46-4.78c0.4-1.06,0.2-2.5-0.93-3
	c-2.35-0.85-3.63,1.78-4.86,3.28c-1.71,2.29-3.51,4.51-5.15,6.85c-0.14-1.02-0.28-2.05-0.42-3.07c-0.37-2.62-0.94-6.87-1.26-7.67
	c-0.48-1.27-2.21-1.83-3.3-0.97c-1.35,1.02-0.81,2.86-0.84,4.32c0.22,4.25,0.55,8.48,1.01,12.71c0.26,2.48,0.53,4.97,0.8,7.45
	c0.21,1.71,0.1,3.9,1.85,4.83c1.38,0.94,3.2,0.13,3.84-1.34c0.35-0.8,0.33-1.67,0.18-2.52c-0.22-1.65-0.45-3.3-0.67-4.95
	c-0.08-0.64-0.17-1.28-0.26-1.93c0.64,0.55,1.25,1.03,1.68,1.4c2.11,1.71,4.38,3.21,6.58,4.8c1.14,0.77,2.22,1.82,3.62,2.05
	C377.82,288.07,379.49,286,378.62,283.75z"/>
<circle class="st4" cx="421.99" cy="113.13" r="11.58"/>
</svg>
